<svg width="15" height="15" viewBox="0 0 15 15" fill="none" xmlns="http://www.w3.org/2000/svg">
<g clip-path="url(#clip0_234_4944)">
<g clip-path="url(#clip1_234_4944)">
<path d="M7.5 0C6.01664 0 4.5666 0.439867 3.33323 1.26398C2.09986 2.08809 1.13856 3.25943 0.570907 4.62987C0.00324965 6.00032 -0.145275 7.50832 0.144114 8.96318C0.433503 10.418 1.14781 11.7544 2.1967 12.8033C3.2456 13.8522 4.58197 14.5665 6.03683 14.8559C7.49168 15.1453 8.99968 14.9968 10.3701 14.4291C11.7406 13.8614 12.9119 12.9001 13.736 11.6668C14.5601 10.4334 15 8.98336 15 7.5C14.9979 5.51154 14.207 3.60513 12.8009 2.19907C11.3949 0.793018 9.48847 0.00215068 7.5 0ZM7.5 12.5C7.37639 12.5 7.25555 12.4633 7.15277 12.3947C7.04999 12.326 6.96988 12.2284 6.92258 12.1142C6.87527 12 6.8629 11.8743 6.88701 11.7531C6.91113 11.6318 6.97065 11.5205 7.05806 11.4331C7.14547 11.3457 7.25683 11.2861 7.37807 11.262C7.49931 11.2379 7.62498 11.2503 7.73918 11.2976C7.85338 11.3449 7.951 11.425 8.01967 11.5278C8.08835 11.6306 8.125 11.7514 8.125 11.875C8.125 12.0408 8.05916 12.1997 7.94195 12.3169C7.82474 12.4342 7.66576 12.5 7.5 12.5ZM8.70625 7.81625C8.52181 7.93157 8.37099 8.09343 8.26896 8.28554C8.16692 8.47765 8.11727 8.69324 8.125 8.91063V9.375C8.125 9.54076 8.05916 9.69973 7.94195 9.81694C7.82474 9.93415 7.66576 10 7.5 10C7.33424 10 7.17527 9.93415 7.05806 9.81694C6.94085 9.69973 6.875 9.54076 6.875 9.375V8.91063C6.86577 8.46964 6.97473 8.03422 7.19058 7.64956C7.40643 7.2649 7.7213 6.94502 8.1025 6.72313C8.33342 6.59594 8.51822 6.399 8.63048 6.16046C8.74273 5.92192 8.77669 5.654 8.7275 5.395C8.6788 5.14825 8.55766 4.92162 8.37953 4.74406C8.20141 4.56649 7.9744 4.44605 7.7275 4.39813C7.54733 4.36478 7.36203 4.37145 7.18472 4.41766C7.0074 4.46388 6.84242 4.54852 6.70145 4.66557C6.56048 4.78263 6.44697 4.92925 6.36896 5.09505C6.29094 5.26084 6.25033 5.44177 6.25 5.625C6.25 5.79076 6.18416 5.94973 6.06695 6.06694C5.94974 6.18415 5.79076 6.25 5.625 6.25C5.45924 6.25 5.30027 6.18415 5.18306 6.06694C5.06585 5.94973 5 5.79076 5 5.625C5.00016 5.18407 5.11693 4.75102 5.33848 4.36978C5.56002 3.98855 5.87845 3.67269 6.26147 3.45424C6.64449 3.2358 7.07847 3.12254 7.51939 3.12596C7.96031 3.12938 8.39249 3.24935 8.77207 3.47371C9.15166 3.69807 9.46515 4.01883 9.68076 4.40346C9.89636 4.78809 10.0064 5.2229 9.99972 5.66378C9.99303 6.10466 9.86986 6.53593 9.6427 6.91385C9.41554 7.29176 9.09247 7.6035 8.70625 7.81625Z" fill="white"/>
</g>
</g>
<defs>
<clipPath id="clip0_234_4944">
<rect width="15" height="15" fill="white"/>
</clipPath>
<clipPath id="clip1_234_4944">
<rect width="15" height="15" fill="white"/>
</clipPath>
</defs>
</svg>
